<svg xmlns="http://www.w3.org/2000/svg" viewBox="0 0 420 330" role="img" aria-labelledby="title">
    <title id="title">Ilustrasi dokter</title>
    <rect width="420" height="330" rx="20" fill="#ffffff"/>
    <circle cx="210" cy="154" r="105" fill="#e8f2ff"/>
    <path d="M135 238c13-44 42-64 75-64s63 20 76 64" fill="#fff" stroke="#2f435d" stroke-width="8" stroke-linecap="round"/>
    <circle cx="210" cy="105" r="44" fill="#2f435d"/>
    <path d="M174 121c18 28 55 31 75 0v68h-75z" fill="#fff" stroke="#2f435d" stroke-width="7"/>
    <path d="M168 107c7-31 28-51 57-50 27 1 45 22 47 50-31-7-58-19-80-39-7 13-15 24-24 39z" fill="#2f435d"/>
    <rect x="282" y="82" width="72" height="90" rx="11" fill="#ffffff" stroke="#8ebcff" stroke-width="6"/>
    <path d="M318 102v48M294 126h48" stroke="#2f435d" stroke-width="10" stroke-linecap="round"/>
    <circle cx="96" cy="116" r="8" fill="#8ebcff"/>
    <circle cx="113" cy="91" r="5" fill="#8ebcff"/>
    <circle cx="318" cy="220" r="7" fill="#8ebcff"/>
    <path d="M81 198c23-11 43-10 61 5M286 55c28 10 49 30 63 61" stroke="#8ebcff" stroke-width="5" stroke-linecap="round"/>
</svg>
